<svg width="203" height="97" viewBox="0 0 203 97" fill="none" xmlns="http://www.w3.org/2000/svg">
<g filter="url(#filter0_d_134_2)">
<rect x="16" y="16" width="171" height="65" rx="4" fill="black"/>
</g>
<rect x="17" y="17" width="169" height="63" rx="1" fill="black" stroke="#14FF8E" stroke-width="2"/>
<path d="M59.2519 57H48.0519V41.32H50.6119V54.76H56.6919V52.52H59.2519V57ZM73.0181 57H64.0581C63.4395 57 62.9061 56.7867 62.4581 56.36C62.0315 55.912 61.8181 55.3787 61.8181 54.76V48.04C61.8181 47.4213 62.0315 46.8987 62.4581 46.472C62.9061 46.024 63.4395 45.8 64.0581 45.8H70.7781C71.3968 45.8 71.9195 46.024 72.3461 46.472C72.7941 46.8987 73.0181 47.4213 73.0181 48.04V50.28L70.7781 52.52H64.3781L66.2981 50.6H70.7781V47.72H64.0581V55.08H73.0181V57ZM87.7369 57H78.7769C78.1582 57 77.6249 56.7867 77.1769 56.36C76.7502 55.912 76.5369 55.3787 76.5369 54.76V48.04C76.5369 47.4213 76.7502 46.8987 77.1769 46.472C77.6249 46.024 78.1582 45.8 78.7769 45.8H85.4969C86.1155 45.8 86.6382 46.024 87.0649 46.472C87.5129 46.8987 87.7369 47.4213 87.7369 48.04V50.28L85.4969 52.52H79.0969L81.0169 50.6H85.4969V47.72H78.7769V55.08H87.7369V57ZM98.6156 57H94.1356C93.517 57 92.9836 56.7867 92.5356 56.36C92.109 55.912 91.8956 55.3787 91.8956 54.76V47.72H88.6956L90.6156 45.8H91.8956V43.56L94.1356 41.32V45.8H98.6156V47.72H94.1356V55.08H98.6156V57ZM111.418 45.8L109.466 47.72H104.058V55.08H110.778V57H104.058C103.439 57 102.906 56.7867 102.458 56.36C102.031 55.912 101.818 55.3787 101.818 54.76V48.04C101.818 47.4213 102.031 46.8987 102.458 46.472C102.906 46.024 103.439 45.8 104.058 45.8H111.418ZM124.862 54.76C124.862 55.3787 124.638 55.912 124.19 56.36C123.763 56.7867 123.241 57 122.622 57H115.902C115.283 57 114.75 56.7867 114.302 56.36C113.875 55.912 113.662 55.3787 113.662 54.76V48.04C113.662 47.4213 113.875 46.8987 114.302 46.472C114.75 46.024 115.283 45.8 115.902 45.8H122.622C123.241 45.8 123.763 46.024 124.19 46.472C124.638 46.8987 124.862 47.4213 124.862 48.04V54.76ZM122.622 55.08V47.72H115.902V55.08H122.622ZM140.549 57H138.309V55.4L136.709 57H131.589C130.971 57 130.437 56.7867 129.989 56.36C129.563 55.912 129.349 55.3787 129.349 54.76V48.04C129.349 47.4213 129.563 46.8987 129.989 46.472C130.437 46.024 130.971 45.8 131.589 45.8H138.309V40.68L140.549 38.44V57ZM138.309 55.08V46.12L136.709 47.72H131.589V55.08H138.309ZM156.549 57H147.589C146.971 57 146.437 56.7867 145.989 56.36C145.563 55.912 145.349 55.3787 145.349 54.76V48.04C145.349 47.4213 145.563 46.8987 145.989 46.472C146.437 46.024 146.971 45.8 147.589 45.8H154.309C154.928 45.8 155.451 46.024 155.877 46.472C156.325 46.8987 156.549 47.4213 156.549 48.04V50.28L154.309 52.52H147.909L149.829 50.6H154.309V47.72H147.589V55.08H156.549V57Z" fill="#14FF8E"/>
<defs>
<filter id="filter0_d_134_2" x="0" y="0" width="203" height="97" filterUnits="userSpaceOnUse" color-interpolation-filters="sRGB">
<feFlood flood-opacity="0" result="BackgroundImageFix"/>
<feColorMatrix in="SourceAlpha" type="matrix" values="0 0 0 0 0 0 0 0 0 0 0 0 0 0 0 0 0 0 127 0" result="hardAlpha"/>
<feOffset/>
<feGaussianBlur stdDeviation="8"/>
<feColorMatrix type="matrix" values="0 0 0 0 0.0784314 0 0 0 0 1 0 0 0 0 0.556863 0 0 0 1 0"/>
<feBlend mode="normal" in2="BackgroundImageFix" result="effect1_dropShadow_134_2"/>
<feBlend mode="normal" in="SourceGraphic" in2="effect1_dropShadow_134_2" result="shape"/>
</filter>
</defs>
</svg>
